HIERARCHY
ROOT Hips
{
	OFFSET -285.066589 92.472481 297.089996
	CHANNELS 6 Xposition Yposition Zposition Xrotation Yrotation Zrotation 
	JOINT RightUpLeg
	{
		OFFSET 0.103457 1.857824 10.548504
		CHANNELS 3 Xrotation Yrotation Zrotation
		JOINT RightLeg
		{
			OFFSET 43.500000 -0.000038 -0.000017
			CHANNELS 3 Xrotation Yrotation Zrotation
			JOINT RightFoot
			{
				OFFSET 42.372200 0.000011 0.000019
				CHANNELS 3 Xrotation Yrotation Zrotation
				JOINT RightToe
				{
					OFFSET 17.300011 0.000002 -0.000008
					CHANNELS 3 Xrotation Yrotation Zrotation
					End Site
					{
						OFFSET 0.000000 0.000000 0.000000
					}
				}
			}
		}
	}
	JOINT LeftUpLeg
	{
		OFFSET 0.103457 1.857822 -10.548492
		CHANNELS 3 Xrotation Yrotation Zrotation
		JOINT LeftLeg
		{
			OFFSET 43.500038 -0.000027 0.000036
			CHANNELS 3 Xrotation Yrotation Zrotation
			JOINT LeftFoot
			{
				OFFSET 42.372261 0.000015 0.000010
				CHANNELS 3 Xrotation Yrotation Zrotation
				JOINT LeftToe
				{
					OFFSET 17.299988 -0.000006 0.000008
					CHANNELS 3 Xrotation Yrotation Zrotation
					End Site
					{
						OFFSET 0.000000 0.000000 0.000000
					}
				}
			}
		}
	}
	JOINT Spine
	{
		OFFSET 6.901965 -2.603737 0.000006
		CHANNELS 3 Xrotation Yrotation Zrotation
		JOINT Spine1
		{
			OFFSET 12.588104 -0.000005 0.000007
			CHANNELS 3 Xrotation Yrotation Zrotation
			JOINT Spine2
			{
				OFFSET 12.343202 0.000026 -0.000008
				CHANNELS 3 Xrotation Yrotation Zrotation
				JOINT Neck
				{
					OFFSET 25.832890 -0.000029 -0.000007
					CHANNELS 3 Xrotation Yrotation Zrotation
					JOINT Head
					{
						OFFSET 11.766619 0.000021 0.000012
						CHANNELS 3 Xrotation Yrotation Zrotation
						End Site
						{
							OFFSET 0.000000 0.000000 0.000000
						}
					}
				}
				JOINT RightShoulder
				{
					OFFSET 19.745909 -1.480377 6.000106
					CHANNELS 3 Xrotation Yrotation Zrotation
					JOINT RightArm
					{
						OFFSET 11.284110 -0.000009 -0.000020
						CHANNELS 3 Xrotation Yrotation Zrotation
						JOINT RightForeArm
						{
							OFFSET 33.000053 0.000014 0.000021
							CHANNELS 3 Xrotation Yrotation Zrotation
							JOINT RightHand
							{
								OFFSET 25.200008 0.000006 -0.000004
								CHANNELS 3 Xrotation Yrotation Zrotation
								End Site
								{
									OFFSET 0.000000 0.000000 0.000000
								}
							}
						}
					}
				}
				JOINT LeftShoulder
				{
					OFFSET 19.746101 -1.480381 -6.000081
					CHANNELS 3 Xrotation Yrotation Zrotation
					JOINT LeftArm
					{
						OFFSET 11.284131 -0.000022 0.000003
						CHANNELS 3 Xrotation Yrotation Zrotation
						JOINT LeftForeArm
						{
							OFFSET 33.000095 0.000014 0.000005
							CHANNELS 3 Xrotation Yrotation Zrotation
							JOINT LeftHand
							{
								OFFSET 25.199774 0.000153 0.000423
								CHANNELS 3 Xrotation Yrotation Zrotation
								End Site
								{
									OFFSET 0.000000 0.000000 0.000000
								}
							}
						}
					}
				}
			}
		}
	}
}
MOTION
Frames: 11
Frame Time: 0.033333
-181.602798 86.219421 -177.388504 89.918095 2.616665 73.182991 -179.386886 4.230395 172.112175 -42.339608 1.452070 2.001956 95.231702 -0.736329 5.796034 21.454558 0.003101 0.000019 149.900618 -1.278184 177.043940 -64.017519 2.133972 -1.232948 86.647001 0.431713 -1.840246 21.454550 -0.003099 -0.000001 10.613428 -0.067650 -1.302822 11.214110 -0.008591 -2.606005 10.896395 -0.024446 -2.605914 7.304939 0.349952 6.793345 -19.138299 1.142116 6.700184 163.698994 -73.471566 15.320055 -15.267302 48.095173 21.200812 -59.557160 -22.086281 2.601620 -3.070807 -16.441302 15.875574 -172.166024 81.415145 9.499023 -6.168002 -61.679675 -49.722134 -36.991089 16.361385 -1.470288 2.099584 8.897863 2.341250 
-183.808395 87.623466 -170.781006 90.341847 2.235145 72.423952 -172.875435 4.465906 174.077043 -35.661490 0.148567 1.761893 87.818426 -0.592273 3.371976 21.454553 0.003102 0.000017 150.228877 -2.035197 177.593156 -49.493265 1.969587 -0.056798 85.222142 -0.187788 -0.749613 21.454551 -0.003100 -0.000001 10.133043 -0.026894 -1.593454 10.252032 0.087605 -3.182966 9.934472 0.068254 -3.183434 8.526996 0.915115 7.767301 -18.559101 -0.162538 8.274786 163.863041 -74.011711 15.128891 -13.207916 48.934897 23.044310 -61.526597 -21.731755 2.653848 -3.077433 -16.874220 14.283286 -170.542952 82.092050 11.146000 -4.305253 -63.123393 -52.638502 -33.264971 15.597811 -1.335132 2.465090 10.656186 5.847169 
-186.102600 88.583122 -164.191406 90.359974 1.341797 72.094969 -168.264961 3.489599 173.237517 -31.424693 0.396369 3.693293 79.597857 -2.622856 -0.314826 21.454557 0.003109 0.000012 151.616088 -3.240299 179.413483 -33.700444 1.976708 1.653467 84.127980 -1.561582 -1.600688 21.454553 -0.003095 0.000002 9.573825 0.170184 -1.839756 9.127182 0.484939 -3.660329 8.809779 0.462699 -3.663183 9.181054 1.261009 8.539597 -17.540059 -1.069524 9.435251 164.301990 -74.714982 14.649931 -11.691336 50.051309 25.204236 -62.064481 -21.343090 2.647871 -3.770063 -17.631430 11.998211 -168.160869 81.869837 13.559106 -2.744587 -63.422063 -54.105948 -30.157768 14.559665 -1.204473 3.372544 10.553761 3.821583 
-188.509201 88.726463 -157.448700 90.252030 1.411786 72.112058 -164.584746 1.711703 174.107765 -31.002485 -0.398628 5.563607 73.359182 -5.912829 -6.502987 21.454563 0.003107 0.000022 154.118601 -4.045397 -179.276579 -21.130184 2.863690 2.883579 84.254270 -1.603305 2.486150 21.454553 -0.003093 -0.000000 9.241694 0.392383 -2.044161 8.454319 0.932964 -4.054274 8.137037 0.908341 -4.059829 9.998785 0.158216 8.814577 -16.928195 -1.488400 9.785563 163.883054 -74.898167 15.070070 -10.776795 50.963255 27.147767 -61.127953 -20.872163 2.577985 -3.439037 -18.604978 11.296117 -164.955093 81.975930 16.805894 -1.864319 -63.791576 -55.040694 -27.071904 13.968951 -1.110221 2.933720 10.258746 2.103526 
-190.534195 88.323868 -151.184998 90.323405 2.002626 72.161980 -163.726000 0.546709 175.016248 -35.704240 0.547130 8.191335 68.647957 -10.468079 -12.760252 21.454550 0.003108 0.000015 155.266510 -4.508300 -178.316514 -17.368794 3.122947 2.521779 83.773807 -1.375438 2.348494 21.454555 -0.003098 -0.000003 9.125917 0.436858 -2.102996 8.220746 1.021874 -4.169757 7.903528 0.996568 -4.175859 10.082957 0.083619 8.692754 -16.190209 -2.273375 9.913113 162.980963 -75.205622 15.977037 -10.733947 51.228324 28.931452 -59.963453 -20.808752 2.528283 -2.332284 -17.107898 10.440919 -163.209993 81.291457 18.579066 -1.599144 -63.636162 -54.628556 -25.251498 13.510557 -1.050976 1.581500 9.822658 0.870457 
-192.419403 87.350090 -145.615097 89.111921 2.527648 72.316035 -165.847812 -1.442400 175.833795 -45.297425 2.666144 10.218240 65.350519 -14.538117 -17.777365 21.454557 0.003115 0.000017 154.711639 -6.180106 -176.571933 -22.925571 2.538641 2.197329 77.886867 -1.943925 -1.168783 21.454548 -0.003096 -0.000001 9.174781 0.741491 -1.968920 8.310056 1.622314 -3.879879 7.992622 1.598728 -3.889593 10.404783 -0.929092 8.576640 -15.974679 -1.531167 9.459044 161.717037 -74.808453 17.285892 -10.933797 50.894659 30.233081 -58.344849 -20.760649 2.463079 -1.705031 -15.841382 9.670832 -163.274880 81.214344 18.513924 -0.692381 -63.379484 -53.915546 -25.362903 13.277399 -1.037804 2.428957 9.417838 1.304619 
-194.513901 85.317482 -139.882004 86.914772 3.752889 71.663950 -168.403273 -4.437707 176.790281 -57.618622 3.227684 9.911054 65.178658 -15.006721 -19.254402 21.454565 0.003105 0.000022 153.532913 -9.104099 -176.103423 -34.862621 2.053047 2.700526 78.899026 -4.394977 -9.582616 21.454551 -0.003100 -0.000001 9.539481 1.228207 -1.635316 9.032652 2.580244 -3.170521 8.714752 2.560916 -3.186039 10.233899 -1.557953 8.536294 -16.474109 -2.042911 9.565289 162.956019 -74.716764 16.024918 -12.042959 51.547940 29.986822 -56.582277 -21.161941 2.424759 -1.123621 -13.004193 9.182487 -164.128913 80.943663 17.649905 -1.803016 -62.039448 -53.243575 -26.073161 13.128044 -1.039629 2.321229 10.557858 3.427579 
-196.761597 83.536743 -134.233200 84.267438 5.160070 70.838009 -172.088296 -7.937389 176.764995 -70.325007 4.169719 7.379946 69.171511 -11.231303 -16.098015 21.454558 0.003113 0.000016 154.703962 -11.432401 -174.540321 -44.276698 1.859253 2.614524 86.049824 -3.923353 -10.942515 21.454553 -0.003100 -0.000000 10.132544 1.863383 -1.322110 10.216418 3.836163 -2.475722 9.897875 3.821008 -2.498858 9.453762 -2.093093 8.904410 -16.814445 -3.173971 10.304819 165.476072 -72.960012 13.521000 -13.329440 51.213636 29.185388 -53.403214 -21.691818 2.345723 -1.279688 -13.185951 10.451976 -167.201924 79.367304 14.535886 -7.166967 -58.661749 -50.003576 -25.889248 12.923269 -1.023490 2.180852 11.906249 4.150643 
-198.959198 82.426041 -128.969696 82.544407 5.331777 70.959962 -179.168703 -10.104703 -179.382255 -81.206031 3.535309 3.572641 75.043883 -5.583409 -9.725050 21.454557 0.003112 0.000013 156.827154 -12.239815 -171.816892 -49.436452 2.092278 1.820124 92.019676 -2.849727 -11.402508 21.454551 -0.003097 -0.000001 10.363471 2.372877 -1.273543 10.674291 4.853059 -2.324453 10.355256 4.838798 -2.353765 8.984001 -2.434692 9.587022 -17.489545 -4.356197 11.437017 167.639903 -72.083508 11.337889 -13.402306 51.937032 29.606630 -49.009165 -21.814209 2.203276 0.888976 -15.823839 5.239497 -168.837905 77.231292 12.871080 -14.348484 -55.054948 -46.363150 -23.954351 12.956828 -0.995771 0.112141 14.126400 2.870362 
-201.238602 81.862679 -123.666801 81.773757 4.880282 70.328006 172.730239 -11.132801 -177.144972 -87.553975 3.911075 1.187494 79.399692 -2.629363 -6.350328 21.454557 0.003107 0.000020 159.773998 -12.950803 -171.016735 -51.877114 2.559992 1.149255 96.684114 -2.003322 -12.149358 21.454553 -0.003094 0.000001 10.300906 2.642055 -1.095398 10.554786 5.372914 -1.946888 10.235358 5.360922 -1.979396 8.762324 -3.121748 10.412242 -16.732864 -4.417062 12.213228 170.278064 -71.865960 8.636971 -12.073854 53.035695 32.453746 -44.390485 -20.944987 1.999298 3.928762 -19.977794 4.442945 -167.562026 76.503979 14.174071 -18.611876 -53.946518 -39.928535 -24.537267 14.557677 -1.106791 0.876785 16.660542 0.223528 
-203.499695 82.026268 -118.376801 81.197343 4.463125 68.857063 165.553854 -11.289089 -175.488433 -88.601193 3.795507 -0.292044 84.013096 -0.385016 -2.006215 21.454560 0.003102 0.000019 164.354692 -13.944306 -171.610962 -51.308593 2.718325 0.397288 99.441810 -1.264698 -12.868319 21.454555 -0.003098 -0.000002 10.235953 2.754030 -0.686494 10.444039 5.558691 -1.122455 10.124368 5.551670 -1.156124 9.555484 -3.023488 10.725041 -16.613124 -5.861799 13.095307 171.958987 -71.968392 6.906015 -8.644888 53.852111 36.431737 -41.765586 -19.775633 1.845727 6.582297 -18.788242 5.949586 -169.674070 75.525008 12.014890 -18.547911 -53.139080 -32.550103 -29.677223 16.660336 -1.329792 3.000209 20.743054 2.029450 
